<svg width="67" height="50" fill="none" xmlns="http://www.w3.org/2000/svg"><path d="M65.69 1.253a2.414 2.414 0 00-2.646-.7L3.084 21.569C1.886 21.99 1.045 23.015.89 24.24a3.195 3.195 0 001.44 3.086L10.901 33c.83.55 1.898.61 2.787.154l18.592-9.509L17.79 34.14a2.611 2.611 0 00-1.086 2.102v9.72c0 1.003.567 1.922 1.48 2.399.913.477 2.018.43 2.886-.126l6.511-4.19 6.404 4.235a3.45 3.45 0 002.585.501 3.41 3.41 0 002.183-1.478L65.88 3.917a2.247 2.247 0 00-.19-2.664zM35.744 44.946l-6.631-4.385a2.758 2.758 0 00-3.02-.02l-5.558 3.577v-7.327L46.12 18.26c1.143-.827 1.43-2.334.67-3.503-.763-1.17-2.288-1.565-3.55-.92L12.5 29.561l-7.249-4.8L60.466 5.409 35.744 44.946z" fill="#fff"/></svg>