<?xml version="1.0" standalone="no"?>
<!DOCTYPE svg PUBLIC "-//W3C//DTD SVG 20010904//EN"
 "http://www.w3.org/TR/2001/REC-SVG-20010904/DTD/svg10.dtd">
<svg version="1.0" xmlns="http://www.w3.org/2000/svg"
 width="300.000000pt" height="300.000000pt" viewBox="0 0 300.000000 300.000000"
 preserveAspectRatio="xMidYMid meet">
<metadata>
Created by potrace 1.14, written by Peter Selinger 2001-2017
</metadata>
<g transform="translate(0.000000,300.000000) scale(0.100000,-0.100000)"
fill="#000000" stroke="none">
<path d="M1079 2849 c-204 -35 -419 -122 -567 -231 -244 -179 -433 -495 -488
-818 -24 -139 -26 -467 -4 -585 6 -33 13 -71 15 -85 5 -41 42 -171 61 -220 22
-57 109 -224 138 -264 71 -100 200 -227 293 -289 176 -117 409 -201 628 -225
78 -9 393 -9 470 0 289 33 493 159 539 335 21 80 7 193 -32 268 -33 62 -92
135 -109 135 -7 0 -51 -18 -99 -40 -169 -79 -255 -101 -418 -105 -187 -4 -355
47 -476 143 -120 95 -213 252 -236 399 -3 21 -8 42 -11 46 -13 21 -10 288 3
372 28 174 94 320 183 405 76 74 195 140 278 154 15 3 41 8 58 12 83 18 252
10 365 -17 63 -16 176 -66 273 -123 l45 -27 50 48 c109 106 149 226 118 361
-34 145 -222 288 -447 338 -161 36 -459 42 -630 13z"/>
<path d="M2324 2368 c-11 -13 -31 -44 -43 -70 -13 -26 -34 -57 -47 -69 -26
-24 -32 -59 -11 -59 24 0 92 51 123 93 37 49 47 83 33 109 -13 24 -31 23 -55
-4z"/>
<path d="M2250 2132 c-25 -15 -50 -28 -55 -29 -6 -1 -30 -4 -55 -8 -76 -11
-89 -56 -21 -75 101 -27 235 43 217 114 -8 33 -29 33 -86 -2z"/>
</g>
</svg>
